<svg width="725" height="662" viewBox="0 0 725 662" fill="none" xmlns="http://www.w3.org/2000/svg">
<g filter="url(#filter0_n_37_284)">
<mask id="path-1-inside-1_37_284" fill="white">
<path d="M724.788 661.237H490.159L475.709 642.205H263.689L249.239 661.237H0V0H241.884L256.884 19.7568H468.903L483.903 0H724.788V661.237Z"/>
</mask>
<path d="M724.788 661.237H490.159L475.709 642.205H263.689L249.239 661.237H0V0H241.884L256.884 19.7568H468.903L483.903 0H724.788V661.237Z" fill="#2A2A2B"/>
<path d="M724.788 661.237V661.737H725.288V661.237H724.788ZM490.159 661.237L489.761 661.54L489.911 661.737H490.159V661.237ZM475.709 642.205L476.107 641.903L475.957 641.705H475.709V642.205ZM263.689 642.205V641.705H263.441L263.291 641.903L263.689 642.205ZM249.239 661.237V661.737H249.487L249.637 661.54L249.239 661.237ZM0 661.237H-0.5V661.737H0V661.237ZM0 0V-0.5H-0.5V0H0ZM241.884 0L242.282 -0.302347L242.132 -0.5H241.884V0ZM256.884 19.7568L256.486 20.0592L256.636 20.2568H256.884V19.7568ZM468.903 19.7568V20.2568H469.151L469.302 20.0592L468.903 19.7568ZM483.903 0V-0.5H483.655L483.505 -0.302347L483.903 0ZM724.788 0H725.288V-0.5H724.788V0ZM724.788 661.237V660.737H490.159V661.237V661.737H724.788V661.237ZM490.159 661.237L490.557 660.935L476.107 641.903L475.709 642.205L475.311 642.507L489.761 661.54L490.159 661.237ZM475.709 642.205V641.705H263.689V642.205V642.705H475.709V642.205ZM263.689 642.205L263.291 641.903L248.841 660.935L249.239 661.237L249.637 661.54L264.088 642.507L263.689 642.205ZM249.239 661.237V660.737H0V661.237V661.737H249.239V661.237ZM0 661.237H0.5V0H0H-0.5V661.237H0ZM0 0V0.5H241.884V0V-0.5H0V0ZM241.884 0L241.486 0.302347L256.486 20.0592L256.884 19.7568L257.282 19.4545L242.282 -0.302347L241.884 0ZM256.884 19.7568V20.2568H468.903V19.7568V19.2568H256.884V19.7568ZM468.903 19.7568L469.302 20.0592L484.302 0.302347L483.903 0L483.505 -0.302347L468.505 19.4545L468.903 19.7568ZM483.903 0V0.5H724.788V0V-0.5H483.903V0ZM724.788 0H724.288V661.237H724.788H725.288V0H724.788Z" fill="white" fill-opacity="0.18" mask="url(#path-1-inside-1_37_284)"/>
</g>
<defs>
<filter id="filter0_n_37_284" x="0" y="0" width="724.788" height="661.237" filterUnits="userSpaceOnUse" color-interpolation-filters="sRGB">
<feFlood flood-opacity="0" result="BackgroundImageFix"/>
<feBlend mode="normal" in="SourceGraphic" in2="BackgroundImageFix" result="shape"/>
<feTurbulence type="fractalNoise" baseFrequency="2 2" stitchTiles="stitch" numOctaves="3" result="noise" seed="5351" />
<feColorMatrix in="noise" type="luminanceToAlpha" result="alphaNoise" />
<feComponentTransfer in="alphaNoise" result="coloredNoise1">
<feFuncA type="discrete" tableValues="1 1 1 1 1 1 1 1 1 1 1 1 1 1 1 1 1 1 1 1 1 1 1 1 1 1 1 1 1 1 1 1 1 1 1 1 1 1 1 1 1 1 1 1 1 1 1 1 1 1 1 0 0 0 0 0 0 0 0 0 0 0 0 0 0 0 0 0 0 0 0 0 0 0 0 0 0 0 0 0 0 0 0 0 0 0 0 0 0 0 0 0 0 0 0 0 0 0 0 0 "/>
</feComponentTransfer>
<feComposite operator="in" in2="shape" in="coloredNoise1" result="noise1Clipped" />
<feFlood flood-color="rgba(0, 0, 0, 0.5)" result="color1Flood" />
<feComposite operator="in" in2="noise1Clipped" in="color1Flood" result="color1" />
<feMerge result="effect1_noise_37_284">
<feMergeNode in="shape" />
<feMergeNode in="color1" />
</feMerge>
</filter>
</defs>
</svg>
